<?xml version="1.0" standalone="no"?><!DOCTYPE svg PUBLIC "-//W3C//DTD SVG 1.1//EN" "http://www.w3.org/Graphics/SVG/1.1/DTD/svg11.dtd"><svg class="icon" width="200px" height="200.00px" viewBox="0 0 1024 1024" version="1.1" xmlns="http://www.w3.org/2000/svg"><path fill="#1296db" d="M401.524 542.476v-217.143c11.428 3.809 26.666 11.428 45.714 11.428 19.047 3.809 41.904 7.619 68.572 7.619 22.857 0 49.523-3.809 68.572-7.619 19.047 0 34.285-7.619 45.714-11.428v217.143c0 60.953-57.142 87.619-114.286 87.619-57.142 0-114.286-26.666-114.286-87.619zM542.476 504.381c3.809-3.809 11.428-3.809 15.238-3.809 7.619 3.809 11.428 3.809 15.238 7.619 3.809 7.619 3.809 15.238 0 19.047-7.619 41.904-110.476 41.904-118.095 0-3.809-3.809-3.809-11.428 3.809-19.047 0-3.809 7.619-3.809 11.428-7.619 3.809 0 11.428 0 15.238 3.809 19.047 15.238 38.095 15.238 57.142 0zM992 512c0-266.666-217.143-480-480-480-266.666 0-480 213.334-480 480 0 262.857 213.334 480 480 480 262.857 0 480-217.143 480-480zM668.19 298.666v243.809c0 26.666-7.619 49.523-19.047 72.381 87.619 41.904 114.286 137.143 121.905 247.619-72.381 53.333-163.809 83.81-259.047 83.81-99.048 0-186.667-30.476-259.047-83.81 7.619-110.476 34.285-205.715 118.095-247.619-11.428-22.857-15.238-45.714-15.238-72.381v-243.809c0-182.857 312.381-182.857 312.381 0z" /></svg>