<?xml version="1.0" standalone="no"?><!DOCTYPE svg PUBLIC "-//W3C//DTD SVG 1.1//EN" "http://www.w3.org/Graphics/SVG/1.1/DTD/svg11.dtd"><svg class="icon" width="200px" height="200.00px" viewBox="0 0 1024 1024" version="1.1" xmlns="http://www.w3.org/2000/svg"><path fill="#1296db" d="M800.178887 62.389956l-576.336284 0c-49.919946 0-90.52576 40.60479-90.52576 90.524736l0 718.16857c0 49.919946 40.605813 90.526783 90.52576 90.526783l395.153782 0c0.36532 0 0.729617-0.020466 1.092891-0.056282 0.132006-0.01228 0.25992-0.035816 0.38988-0.052189 0.228197-0.029676 0.457418-0.062422 0.685615-0.106424 0.148379-0.027629 0.289596-0.065492 0.435928-0.100284 0.205685-0.048095 0.411369-0.098237 0.61603-0.157589 0.148379-0.044002 0.291642-0.096191 0.435928-0.146333 0.193405-0.065492 0.387833-0.132006 0.579191-0.209778 0.148379-0.060375 0.293689-0.127913 0.440022-0.195451 0.173962-0.079818 0.347924-0.159636 0.517793-0.24764 0.165776-0.088004 0.327458-0.180102 0.488117-0.274246 0.1361-0.079818 0.272199-0.159636 0.404206-0.245593 0.201591-0.127913 0.396019-0.26606 0.587378-0.405229 0.077771-0.060375 0.157589-0.115634 0.237407-0.178055 0.25378-0.197498 0.497327-0.405229 0.733711-0.62524 0.00614-0.00614 0.014326-0.010233 0.020466-0.01842l0.063445-0.058328c0.092098-0.085958 0.186242-0.165776 0.274246-0.25378l260.07327-241.248529c0.004093-0.004093 0.008186-0.008186 0.01228-0.01228 0.25378-0.237407 0.497327-0.48607 0.729617-0.74599 0.033769-0.037862 0.067538-0.073678 0.102331-0.113587 0.192382-0.220011 0.373507-0.449231 0.549515-0.685615 0.056282-0.077771 0.11768-0.151449 0.171915-0.232291 0.138146-0.195451 0.26606-0.402159 0.391926-0.605797 0.071631-0.119727 0.148379-0.23536 0.215918-0.358157 0.098237-0.173962 0.186242-0.352017 0.274246-0.530073 0.075725-0.157589 0.155543-0.314155 0.226151-0.471744 0.067538-0.153496 0.12382-0.312108 0.184195-0.467651 0.073678-0.192382 0.148379-0.381693 0.209778-0.577145 0.044002-0.134053 0.079818-0.272199 0.11768-0.409322 0.062422-0.224104 0.12382-0.446162 0.171915-0.671289 0.025583-0.11768 0.044002-0.23536 0.065492-0.356111 0.046049-0.25378 0.088004-0.509606 0.115634-0.765433 0.01228-0.100284 0.01842-0.203638 0.025583-0.305969 0.023536-0.277316 0.039909-0.555655 0.041956-0.835018 0-0.037862 0.00614-0.075725 0.00614-0.115634L890.68418 152.914692C890.68111 102.994746 850.077344 62.389956 800.178887 62.389956zM305.294706 276.911774 722.447525 276.911774c6.231935 0 11.274788 5.042853 11.274788 11.274788s-5.042853 11.274788-11.274788 11.274788L305.294706 299.461349c-6.230911 0-11.274788-5.042853-11.274788-11.274788S299.063795 276.911774 305.294706 276.911774zM583.411935 672.087045 305.294706 672.087045c-6.230911 0-11.274788-5.042853-11.274788-11.274788 0-6.229888 5.043876-11.274788 11.274788-11.274788l278.117229 0c6.231935 0 11.274788 5.0449 11.274788 11.274788C594.686722 667.044192 589.643869 672.087045 583.411935 672.087045zM305.294706 485.773685c-6.230911 0-11.274788-5.042853-11.274788-11.274788s5.043876-11.274788 11.274788-11.274788L722.447525 463.22411c6.231935 0 11.274788 5.042853 11.274788 11.274788s-5.042853 11.274788-11.274788 11.274788L305.294706 485.773685zM630.270149 924.509055 630.270149 788.023544c0-37.47859 30.497595-67.976184 67.976184-67.976184L850.688257 720.04736 630.270149 924.509055z" /></svg>